<svg t="1743997112940" class="icon" viewBox="0 0 1024 1024" version="1.1" xmlns="http://www.w3.org/2000/svg"
  p-id="15531" width="32" height="32">
  <path
    d="M896 93.866667H469.333333c-17.066667 0-34.133333 12.8-34.133333 34.133333v768c0 17.066667 12.8 34.133333 34.133333 34.133333h426.666667c17.066667 0 34.133333-12.8 34.133333-34.133333V128c0-17.066667-17.066667-34.133333-34.133333-34.133333z m-392.533333 68.266666h149.333333v704h-149.333333V162.133333z m358.4 699.733334h-149.333334V162.133333h149.333334v699.733334zM388.266667 119.466667l-170.666667-21.333334c-8.533333 0-17.066667 0-25.6 8.533334-4.266667 0-8.533333 8.533333-8.533333 17.066666l-85.333334 746.666667c0 17.066667 8.533333 34.133333 29.866667 34.133333l179.2 21.333334h4.266667c8.533333 0 12.8-4.266667 21.333333-8.533334 4.266667 0 8.533333-8.533333 8.533333-17.066666L413.866667 153.6c4.266667-17.066667-8.533333-34.133333-25.6-34.133333zM281.6 861.866667l-115.2-12.8 76.8-682.666667 106.666667 12.8-68.266667 682.666667z"
    p-id="15532"></path>
  <path
    d="M789.333333 418.133333c17.066667 0 34.133333-12.8 34.133334-34.133333V320c0-17.066667-12.8-34.133333-34.133334-34.133333s-34.133333 12.8-34.133333 34.133333V384c4.266667 17.066667 17.066667 34.133333 34.133333 34.133333zM576 290.133333c-17.066667 0-34.133333 12.8-34.133333 34.133334V384c0 17.066667 12.8 34.133333 34.133333 34.133333s34.133333-12.8 34.133333-34.133333V320c-4.266667-17.066667-17.066667-29.866667-34.133333-29.866667z"
    p-id="15533"></path>
</svg>
