<svg t="1742355216192" class="icon" viewBox="0 0 1024 1024" version="1.1" xmlns="http://www.w3.org/2000/svg"
  p-id="32629" width="32" height="32">
  <path
    d="M701.866667 955.306667H328.746667A117.333333 117.333333 0 0 1 227.2 896L40.533333 573.653333a118.186667 118.186667 0 0 1 0-117.333333l186.666667-322.986667a117.333333 117.333333 0 0 1 101.546667-58.666666H701.866667a117.546667 117.546667 0 0 1 101.546666 58.666666l186.453334 322.986667a117.546667 117.546667 0 0 1 0 117.333333L803.413333 896a117.546667 117.546667 0 0 1-101.546666 59.306667zM328.746667 138.666667a53.76 53.76 0 0 0-46.293334 26.666666L96 488.32a53.973333 53.973333 0 0 0 0 53.333333l186.453333 322.986667a53.76 53.76 0 0 0 46.293334 26.666667H701.866667a53.333333 53.333333 0 0 0 46.08-26.666667l186.453333-322.986667a52.906667 52.906667 0 0 0 0-53.333333L747.946667 165.333333A53.333333 53.333333 0 0 0 701.866667 138.666667z"
    p-id="32630"></path>
  <path
    d="M515.2 698.666667a183.68 183.68 0 1 1 183.68-183.68 183.68 183.68 0 0 1-183.68 183.68z m0-303.36a119.68 119.68 0 1 0 119.68 119.68 119.68 119.68 0 0 0-119.68-119.68z"
    p-id="32631"></path>
</svg>
