<svg t="1746520539739" class="icon" viewBox="0 0 1024 1024" version="1.1" xmlns="http://www.w3.org/2000/svg" p-id="4612"
  width="32" height="32">
  <path
    d="M512.5 54C718.773 54 886 221.08 886 427.2c0 148.717-87.867 280.98-220.374 340.492l-12.883 154.415c-2.283 27.367-24.964 48.467-52.33 48.887l-0.83 0.006h-174.16c-27.46 0-50.394-20.83-53.082-48.066l-0.075-0.827-12.885-154.412C226.87 708.185 139 575.92 139 427.2 139 221.08 306.227 54 512.5 54z m88.067 723.659H424.438l10.789 129.34H589.78l10.787-129.34zM512.5 118C341.56 118 203 256.439 203 427.2c0 126.364 76.577 238.4 191.103 285.78l1.672 0.679h233.449l1.673-0.68c113.357-46.895 189.536-157.136 191.08-281.915L822 427.2C822 256.439 683.44 118 512.5 118z m128.063 213.225c17.496 0 31.713 14.042 31.995 31.47l0.005 0.53v127.95c0 23.545-24.527 38.945-45.662 28.938l-0.64-0.311L512.5 462.97l-113.76 56.832c-21.064 10.522-45.801-4.537-46.294-27.916l-0.007-0.711v-127.95c0-17.673 14.326-32 32-32 17.496 0 31.713 14.042 31.995 31.47l0.005 0.53-0.001 76.193 81.762-40.845a32 32 0 0 1 28.135-0.228l0.467 0.228 81.761 40.845v-76.193c0-17.496 14.042-31.713 31.471-31.996l0.53-0.004z"
    p-id="4613"></path>
</svg>
