<svg t="1742378379016" class="icon" viewBox="0 0 1024 1024" version="1.1" xmlns="http://www.w3.org/2000/svg" p-id="7307"
  width="32" height="32">
  <path
    d="M842.666667 896H181.333333a53.393333 53.393333 0 0 1-53.333333-53.333333V181.333333a53.393333 53.393333 0 0 1 53.333333-53.333333h661.333334a53.393333 53.393333 0 0 1 53.333333 53.333333v661.333334a53.393333 53.393333 0 0 1-53.333333 53.333333zM181.333333 170.666667a10.666667 10.666667 0 0 0-10.666666 10.666666v661.333334a10.666667 10.666667 0 0 0 10.666666 10.666666h661.333334a10.666667 10.666667 0 0 0 10.666666-10.666666V181.333333a10.666667 10.666667 0 0 0-10.666666-10.666666z"
    fill="#5C5C66" p-id="7308"></path>
</svg>
