<svg xmlns="http://www.w3.org/2000/svg" xmlns:xlink="http://www.w3.org/1999/xlink" width="13.333984375" height="13.3330078125" viewBox="0 0 13.333984375 13.3330078125" fill="none">
<path d="M6.66699 5.33317C6.70516 5.33317 6.74333 5.33224 6.78149 5.33037C6.81963 5.32847 6.85769 5.32567 6.89569 5.32194C6.93369 5.3182 6.97159 5.31354 7.00936 5.3079C7.04713 5.3023 7.08476 5.29577 7.12219 5.28834C7.15966 5.2809 7.19693 5.27254 7.23396 5.26324C7.27099 5.25397 7.30776 5.2438 7.34433 5.2327C7.38086 5.2216 7.41709 5.20964 7.45306 5.19677C7.48903 5.1839 7.52463 5.17017 7.55993 5.15557C7.59519 5.14094 7.63009 5.12547 7.66463 5.10914C7.69913 5.09284 7.73323 5.07567 7.76693 5.05764C7.80059 5.03964 7.83379 5.02084 7.86656 5.0012C7.89933 4.98157 7.93156 4.96117 7.96333 4.93994C7.99509 4.9187 8.02629 4.89674 8.05696 4.874C8.08763 4.85124 8.11773 4.82777 8.14726 4.80354C8.17676 4.7793 8.20566 4.75437 8.23396 4.72874C8.26226 4.7031 8.28989 4.67677 8.31689 4.64974C8.34393 4.62274 8.37026 4.5951 8.39589 4.5668C8.42153 4.5385 8.44646 4.5096 8.47069 4.4801C8.49493 4.45057 8.51839 4.42047 8.54116 4.3898C8.56389 4.35914 8.58586 4.32794 8.60709 4.29617C8.62833 4.2644 8.64873 4.23217 8.66836 4.1994C8.68799 4.16664 8.70679 4.13344 8.72479 4.09977C8.74283 4.06607 8.75999 4.03197 8.77629 3.99747C8.79263 3.96294 8.80809 3.92804 8.82273 3.89277C8.83733 3.85748 8.85106 3.82186 8.86393 3.7859C8.87679 3.74995 8.88876 3.7137 8.89986 3.67717C8.91096 3.64064 8.92113 3.60385 8.93039 3.5668C8.93969 3.52976 8.94806 3.4925 8.95549 3.45504C8.96293 3.41759 8.96946 3.37998 8.97506 3.3422C8.98066 3.30443 8.98533 3.26654 8.98909 3.22854C8.99283 3.19054 8.99563 3.15247 8.99753 3.11434C8.99939 3.07618 9.00033 3.03801 9.00033 2.99984C9.00033 2.96166 8.99939 2.92349 8.99753 2.88534C8.99563 2.8472 8.99283 2.80914 8.98909 2.77114C8.98533 2.73314 8.98066 2.69525 8.97506 2.65747C8.96946 2.61969 8.96293 2.58208 8.95549 2.54464C8.94806 2.50717 8.93969 2.46991 8.93039 2.43287C8.92113 2.39583 8.91096 2.35904 8.89986 2.3225C8.88876 2.28597 8.87679 2.24973 8.86393 2.21377C8.85106 2.17781 8.83733 2.14219 8.82273 2.1069C8.80809 2.07164 8.79263 2.03674 8.77629 2.0022C8.75996 1.96769 8.74279 1.93359 8.72479 1.89991C8.70679 1.86623 8.68799 1.83302 8.66836 1.80026C8.64873 1.76751 8.62833 1.73526 8.60709 1.70351C8.58586 1.67176 8.56389 1.64054 8.54116 1.60987C8.51839 1.5792 8.49493 1.5491 8.47069 1.51959C8.44646 1.49007 8.42153 1.46116 8.39589 1.43287C8.37026 1.40457 8.34393 1.37692 8.31689 1.34992C8.28989 1.32292 8.26226 1.29659 8.23396 1.27095C8.20566 1.24531 8.17676 1.22037 8.14726 1.19615C8.11773 1.17192 8.08763 1.14843 8.05696 1.12569C8.02629 1.10294 7.99509 1.08096 7.96333 1.05974C7.93156 1.03852 7.89933 1.0181 7.86656 0.998471C7.83379 0.978839 7.80059 0.960023 7.76693 0.942021C7.73323 0.924021 7.69913 0.906856 7.66463 0.890527C7.63009 0.874201 7.59519 0.858731 7.55993 0.844117C7.52463 0.829504 7.48903 0.815765 7.45306 0.802901C7.41709 0.790036 7.38086 0.778062 7.34433 0.766977C7.30776 0.755891 7.27099 0.745708 7.23396 0.736431C7.19693 0.727153 7.15966 0.718788 7.12219 0.711337C7.08476 0.703889 7.04713 0.697362 7.00936 0.691757C6.97159 0.686155 6.93369 0.681483 6.89569 0.677741C6.85769 0.673996 6.81963 0.671187 6.78149 0.669314C6.74333 0.667441 6.70516 0.666504 6.66699 0.666504C6.62883 0.666504 6.59066 0.667441 6.55249 0.669314C6.51436 0.671187 6.47629 0.673996 6.43829 0.677741C6.40029 0.681483 6.36239 0.686155 6.32463 0.691757C6.28686 0.697362 6.24923 0.703889 6.21179 0.711337C6.17433 0.718788 6.13706 0.727153 6.10003 0.736431C6.06299 0.745708 6.02623 0.755891 5.98966 0.766977C5.95313 0.778062 5.91689 0.790036 5.88093 0.802901C5.84496 0.815765 5.80936 0.829504 5.77406 0.844117C5.73879 0.858731 5.70389 0.874201 5.66936 0.890527C5.63486 0.906856 5.60076 0.924021 5.56706 0.942021C5.53339 0.960023 5.50019 0.978839 5.46743 0.998471C5.43466 1.0181 5.40243 1.03852 5.37066 1.05974C5.33889 1.08096 5.30769 1.10294 5.27703 1.12569C5.24636 1.14843 5.21626 1.17192 5.18673 1.19615C5.15723 1.22037 5.12833 1.24531 5.10003 1.27095C5.07173 1.29659 5.04409 1.32292 5.01709 1.34992C4.99006 1.37692 4.96373 1.40457 4.93809 1.43287C4.91246 1.46116 4.88753 1.49007 4.86329 1.51959C4.83906 1.5491 4.81559 1.5792 4.79283 1.60987C4.77009 1.64054 4.74813 1.67176 4.72689 1.70351C4.70566 1.73526 4.68526 1.76751 4.66563 1.80026C4.64599 1.83302 4.62719 1.86623 4.60919 1.89991C4.59116 1.93359 4.57399 1.96769 4.55769 2.0022C4.54136 2.03674 4.52589 2.07164 4.51126 2.1069C4.49666 2.14219 4.48293 2.17781 4.47006 2.21377C4.45719 2.24973 4.44523 2.28597 4.43413 2.3225C4.42303 2.35904 4.41286 2.39583 4.40359 2.43287C4.39429 2.46991 4.38593 2.50717 4.37849 2.54464C4.37106 2.58208 4.36453 2.61969 4.35893 2.65747C4.35333 2.69525 4.34866 2.73314 4.34489 2.77114C4.34116 2.80914 4.33836 2.8472 4.33646 2.88534C4.33459 2.92349 4.33366 2.96166 4.33366 2.99984C4.33366 3.03801 4.33459 3.07618 4.33646 3.11434C4.33836 3.15247 4.34116 3.19054 4.34489 3.22854C4.34866 3.26654 4.35333 3.30443 4.35893 3.3422C4.36453 3.37998 4.37106 3.41759 4.37849 3.45504C4.38593 3.4925 4.39429 3.52976 4.40359 3.5668C4.41286 3.60385 4.42303 3.64064 4.43413 3.67717C4.44523 3.7137 4.45719 3.74995 4.47006 3.7859C4.48293 3.82186 4.49666 3.85748 4.51126 3.89277C4.52589 3.92804 4.54136 3.96294 4.55769 3.99747C4.57399 4.03197 4.59116 4.06607 4.60916 4.09977C4.62719 4.13344 4.64599 4.16664 4.66563 4.1994C4.68526 4.23217 4.70566 4.2644 4.72689 4.29617C4.74813 4.32794 4.77009 4.35914 4.79283 4.3898C4.81559 4.42047 4.83906 4.45057 4.86329 4.4801C4.88753 4.5096 4.91246 4.5385 4.93809 4.5668C4.96373 4.5951 4.99006 4.62274 5.01709 4.64974C5.04409 4.67677 5.07173 4.7031 5.10003 4.72874C5.12833 4.75437 5.15723 4.7793 5.18673 4.80354C5.21626 4.82777 5.24636 4.85124 5.27703 4.874C5.30769 4.89674 5.33889 4.9187 5.37066 4.93994C5.40243 4.96117 5.43466 4.98157 5.46743 5.0012C5.50019 5.02084 5.53339 5.03964 5.56706 5.05764C5.60076 5.07567 5.63486 5.09284 5.66936 5.10914C5.70389 5.12547 5.73879 5.14094 5.77406 5.15557C5.80936 5.17017 5.84496 5.1839 5.88093 5.19677C5.91689 5.20964 5.95313 5.2216 5.98966 5.2327C6.02619 5.2438 6.06299 5.25397 6.10003 5.26324C6.13706 5.27254 6.17433 5.2809 6.21179 5.28834C6.24923 5.29577 6.28686 5.3023 6.32463 5.3079C6.36239 5.31354 6.40029 5.3182 6.43829 5.32194C6.47629 5.32567 6.51436 5.32847 6.55249 5.33037C6.59066 5.33224 6.62883 5.33317 6.66699 5.33317ZM0.666992 12.2665L0.666992 12.6665L12.667 12.6665L12.667 12.2665C12.667 10.7732 12.667 10.0265 12.3763 9.45584C12.3128 9.33117 12.2399 9.21224 12.1577 9.09907C12.0755 8.98587 11.9849 8.8798 11.8859 8.7809C11.787 8.68197 11.681 8.59137 11.5678 8.50914C11.4546 8.4269 11.3357 8.354 11.211 8.2905C10.6403 7.99984 9.89366 7.99984 8.40033 7.99984L4.93366 7.99984C3.44033 7.99984 2.69366 7.99984 2.12299 8.2905C1.99833 8.354 1.87941 8.4269 1.76622 8.50914C1.65303 8.59137 1.54697 8.68197 1.44804 8.7809C1.34911 8.8798 1.25853 8.98587 1.17629 9.09907C1.09406 9.21224 1.02118 9.33117 0.957659 9.45584C0.666992 10.0265 0.666992 10.7732 0.666992 12.2665Z" stroke="rgba(147, 148, 153, 1)" stroke-width="1.3333333333333333" stroke-linejoin="round" stroke-linecap="round"    fill="#939499" >
</path>
</svg>
